<svg height="512pt" viewBox="-61 0 512 512.001" width="512pt" xmlns="http://www.w3.org/2000/svg"><g fill="#ff0059"><path d="M284.996 179.262l67.5-12.008 35.887-37.684c-1.149-2.39-2.793-4.527-5.067-6.047l-180-120.996A14.957 14.957 0 0 0 194.996 0l-15 91.004 15 40.254 31.25 34.746zm0 0M105 179.262l-41.25-42.008-62.137-7.684C.656 131.566 0 133.727 0 136.004V376c0 2.281.656 4.441 1.613 6.438L71.25 373.5 105 332.746l20-81.742zm0 0M284.996 332.746l-52.5 9.508-37.5 38.492-15 62.504 15 68.75c2.902 0 5.8-.836 8.32-2.52l180-121c2.274-1.515 3.918-3.652 5.067-6.042l-43.387-41.434zm0 0"/></g><path d="M194.996 131.258V0c-2.898 0-5.8.844-8.316 2.527l-180 120.996c-2.274 1.52-3.918 3.657-5.067 6.047L105 179.262zm0 0" fill="#ff5e95"/><path d="M284.996 332.746l103.387 49.692c.957-1.997 1.613-4.157 1.613-6.438V136.004c0-2.277-.656-4.438-1.613-6.434l-103.387 49.692zm0 0" fill="#e50048"/><path d="M105 332.746L1.613 382.438c1.149 2.39 2.793 4.527 5.067 6.046l180 120.996a14.945 14.945 0 0 0 8.316 2.52V380.746zm0 0" fill="#ff5e95"/><path d="M284.996 179.203v153.598l-90 48-89.996-48V179.203l89.996-48zm0 0" fill="#ffa2c3"/><path d="M284.996 179.203v153.598l-90 48V131.203zm0 0" fill="#ff5e95"/></svg>